<svg width="401" height="355" viewBox="0 0 401 355" fill="none" xmlns="http://www.w3.org/2000/svg">
<g filter="url(#filter0_d)">
<path d="M130 284.075L131.433 296.015C130.955 296.493 130.955 297.639 134.776 298.403C139.552 299.358 146.239 298.881 157.224 297.448C166.012 296.302 170.438 293.149 171.552 291.716L167.731 256.373L176.806 254.463L175.851 238.702C175.055 233.766 173.272 222.749 172.508 218.164C171.743 213.579 172.826 213.388 173.463 213.866L176.328 212.91C175.055 209.567 172.221 201.543 171.075 196.194C169.642 189.508 168.209 189.03 167.254 188.552C166.49 188.17 161.523 187.756 159.134 187.597L157.224 174.224L155.791 157.03C155.791 152.572 155.887 142.797 156.269 139.358C156.746 135.06 156.746 132.672 157.702 128.851C158.466 125.794 158.975 120.254 159.134 117.866C159.453 115.637 160.185 110.319 160.567 106.881C161.045 102.582 160.567 98.7612 160.567 97.806V95.4179C160.567 94.7811 160.663 93.3165 161.045 92.5523C161.523 91.5971 161.045 88.7314 161.045 87.7762C161.045 86.8209 159.612 84.9105 158.179 82.5224C157.797 82.1403 157.383 77.9055 157.224 75.8359H157.702C161.523 75.8359 175.373 74.8806 181.105 73.9254C186.836 72.9702 204.985 68.1941 211.194 65.806C217.403 63.4179 223.612 59.1194 226.955 55.2985C230.299 51.4776 229.343 48.1344 230.299 45.2687C231.063 42.9762 229.98 38.9005 229.343 37.1493C229.025 37.1493 229.057 36.9582 231.731 36.1941C234.406 35.4299 234.12 31.7364 233.642 29.9851C234.597 29.8259 236.985 29.412 238.896 29.0299C240.806 28.6478 241.602 27.9155 241.761 27.597C244.149 26.9602 250.072 25.4956 254.657 24.7314C260.388 23.7762 273.761 21.8657 282.358 20.4329C289.236 19.2866 305.921 16.4528 313.403 15.1791C322.159 14.2239 341.678 12.2179 349.702 11.8359C357.725 11.4538 369.284 12.6319 374.06 13.2687L377.881 2.28362C374.856 1.6468 366.896 0.373169 359.254 0.373169C349.702 0.373169 321.045 1.806 317.702 2.28362C315.027 2.66571 301.622 4.67168 295.254 5.6269L269.463 10.403C261.025 11.9951 243.672 15.2747 241.761 15.6568C239.373 16.1344 241.284 15.6568 240.328 15.6568H237.94L229.343 17.0896L228.388 16.612C227.433 16.1344 224.854 14.8926 222.179 13.7463C218.74 12.2179 214.697 13.1095 213.105 13.7463C211.513 14.0647 207.66 14.7971 204.985 15.1791C202.311 15.5612 200.687 15.3383 200.209 15.1791C194.478 13.7463 164.866 7.05974 140.508 4.19407C116.149 1.32839 79.3733 5.14929 67.433 7.05974C55.4927 8.97019 42.1195 14.7015 34.4777 18.5224C26.836 22.3433 23.4927 31.8956 23.4927 38.5821C23.4927 45.2687 29.224 53.3881 35.433 57.6866C41.6419 61.9851 55.9703 66.2836 64.5673 68.1941C73.1643 70.1045 85.5822 72.4926 91.3136 72.9702C95.8986 73.3523 95.7713 74.403 95.1345 74.8806C94.9753 75.5174 94.5613 77.6508 94.1792 81.0896C93.7016 85.3881 94.1792 90.6418 93.7016 92.0747C93.3195 93.2209 92.9056 93.8259 92.7464 93.9851C92.9056 95.4179 93.3195 98.9523 93.7016 101.627C94.1792 104.97 95.6121 103.537 96.5673 106.881C97.5225 110.224 100.866 119.776 102.299 124.075C103.731 128.373 107.552 138.403 109.94 144.612C111.851 149.579 114.557 161.647 115.672 167.06C116.468 173.269 118.155 186.546 118.537 189.985C118.92 193.424 119.015 196.194 119.015 197.149L118.537 197.627C116.627 198.009 116.149 199.378 116.149 200.015C116.309 201.925 116.723 206.319 117.105 208.612C117.582 211.478 119.493 225.806 120.448 231.537C121.403 237.269 124.746 253.985 125.224 255.418C125.606 256.564 126.338 258.124 126.657 258.761L130 284.075Z" fill="#C4C4C4"/>
</g>
<defs>
<filter id="filter0_d" x="0.567303" y="0.373169" width="400.239" height="353.93" filterUnits="userSpaceOnUse" color-interpolation-filters="sRGB">
<feFlood flood-opacity="0" result="BackgroundImageFix"/>
<feColorMatrix in="SourceAlpha" type="matrix" values="0 0 0 0 0 0 0 0 0 0 0 0 0 0 0 0 0 0 127 0"/>
<feOffset dy="32.4776"/>
<feGaussianBlur stdDeviation="11.4627"/>
<feColorMatrix type="matrix" values="0 0 0 0 0 0 0 0 0 0 0 0 0 0 0 0 0 0 0.15 0"/>
<feBlend mode="normal" in2="BackgroundImageFix" result="effect1_dropShadow"/>
<feBlend mode="normal" in="SourceGraphic" in2="effect1_dropShadow" result="shape"/>
</filter>
</defs>
</svg>
